<svg width="45" height="45" viewBox="0 0 45 45" fill="none" xmlns="http://www.w3.org/2000/svg">
<path fill-rule="evenodd" clip-rule="evenodd" d="M22.5 45C34.9264 45 45 34.9264 45 22.5C45 10.0736 34.9264 0 22.5 0C10.0736 0 0 10.0736 0 22.5C0 34.9264 10.0736 45 22.5 45ZM16.8333 34C16.8333 34.092 16.7587 34.1667 16.6667 34.1667C16.5746 34.1667 16.5 34.092 16.5 34C16.5 33.908 16.5746 33.8333 16.6667 33.8333C16.7587 33.8333 16.8333 33.908 16.8333 34ZM16.6667 31.1667C15.1019 31.1667 13.8333 32.4352 13.8333 34C13.8333 35.5648 15.1019 36.8333 16.6667 36.8333C18.2315 36.8333 19.5 35.5648 19.5 34C19.5 32.4352 18.2315 31.1667 16.6667 31.1667ZM31.3333 34.1667C31.4254 34.1667 31.5 34.092 31.5 34C31.5 33.908 31.4254 33.8333 31.3333 33.8333C31.2413 33.8333 31.1667 33.908 31.1667 34C31.1667 34.092 31.2413 34.1667 31.3333 34.1667ZM28.5 34C28.5 32.4352 29.7685 31.1667 31.3333 31.1667C32.8981 31.1667 34.1667 32.4352 34.1667 34C34.1667 35.5648 32.8981 36.8333 31.3333 36.8333C29.7685 36.8333 28.5 35.5648 28.5 34ZM8.73333 7.23333C7.90491 7.23333 7.23333 7.90491 7.23333 8.73333C7.23333 9.56176 7.90491 10.2333 8.73333 10.2333H10.1872L11.3477 15.6516C11.355 15.6947 11.3641 15.7372 11.375 15.779L13.4799 25.6075L13.48 25.608C13.6833 26.5556 14.2106 27.4027 14.9711 28.0035C15.7267 28.6005 16.6657 28.9171 17.6281 28.9H30.6533L30.6558 28.9C31.604 28.8985 32.5234 28.5735 33.2621 27.9788C34.0004 27.3843 34.514 26.5558 34.718 25.6301L34.7183 25.6292L36.9177 15.7252C37.0163 15.2811 36.908 14.8162 36.6233 14.4613C36.3386 14.1065 35.9083 13.9 35.4533 13.9H14.0406L12.8667 8.4192C12.7186 7.72752 12.1074 7.23333 11.4 7.23333H8.73333ZM16.4133 24.9787L14.6831 16.9H33.5837L31.789 24.9815L31.7884 24.9842C31.7313 25.2435 31.5875 25.4756 31.3807 25.6421C31.1741 25.8084 30.917 25.8994 30.6519 25.9L30.6509 25.9L17.6133 25.9C17.6022 25.9 17.5911 25.9001 17.58 25.9004C17.3087 25.9064 17.0437 25.8177 16.8308 25.6495C16.618 25.4813 16.4704 25.2443 16.4134 24.9792L16.4134 24.979L16.4133 24.9787Z" fill="#D9D9D9"/>
</svg>
