<svg width="45" height="45" viewBox="0 0 45 45" fill="none" xmlns="http://www.w3.org/2000/svg">
<path fill-rule="evenodd" clip-rule="evenodd" d="M22.5 45C34.9264 45 45 34.9264 45 22.5C45 10.0736 34.9264 0 22.5 0C10.0736 0 0 10.0736 0 22.5C0 34.9264 10.0736 45 22.5 45ZM17.375 32.625C17.375 32.8321 17.2071 33 17 33C16.7929 33 16.625 32.8321 16.625 32.625C16.625 32.4179 16.7929 32.25 17 32.25C17.2071 32.25 17.375 32.4179 17.375 32.625ZM17 30C15.5503 30 14.375 31.1752 14.375 32.625C14.375 34.0747 15.5503 35.25 17 35.25C18.4497 35.25 19.625 34.0747 19.625 32.625C19.625 31.1752 18.4497 30 17 30ZM29.375 33C29.5821 33 29.75 32.8321 29.75 32.625C29.75 32.4179 29.5821 32.25 29.375 32.25C29.1679 32.25 29 32.4179 29 32.625C29 32.8321 29.1679 33 29.375 33ZM26.75 32.625C26.75 31.1752 27.9253 30 29.375 30C30.8247 30 32 31.1752 32 32.625C32 34.0747 30.8247 35.25 29.375 35.25C27.9253 35.25 26.75 34.0747 26.75 32.625ZM10.3062 9.80625C9.47782 9.80625 8.80625 10.4778 8.80625 11.3062C8.80625 12.1347 9.47782 12.8062 10.3062 12.8062H11.3435L12.2817 17.1869C12.2886 17.2273 12.2972 17.2671 12.3073 17.3063L14.082 25.5929L14.0821 25.5934C14.2651 26.4462 14.7396 27.2086 15.4241 27.7494C16.1036 28.2862 16.9479 28.5712 17.8134 28.5562H28.8013L28.8037 28.5562C29.6571 28.5549 30.4846 28.2624 31.1493 27.7272C31.8138 27.1922 32.276 26.4467 32.4597 25.6137L32.4599 25.6125L34.3156 17.2564C34.4142 16.8123 34.3059 16.3474 34.0212 15.9926C33.7366 15.6377 33.3062 15.4313 32.8513 15.4313H14.9737L14.023 10.9921C13.8749 10.3004 13.2636 9.80625 12.5563 9.80625H10.3062ZM17.0154 24.9641L15.6162 18.4313H30.9816L29.5307 24.9648L29.5301 24.9675C29.4934 25.1342 29.4009 25.2834 29.268 25.3904C29.1352 25.4973 28.9701 25.5558 28.7997 25.5563H17.7987C17.7876 25.5563 17.7765 25.5564 17.7654 25.5566C17.591 25.5605 17.4207 25.5035 17.2838 25.3953C17.147 25.2873 17.0522 25.135 17.0155 24.9646L17.0154 24.9644L17.0154 24.9641Z" fill="#0E0E0E"/>
</svg>
